<svg width="181" height="118" viewBox="0 0 181 118" fill="none" xmlns="http://www.w3.org/2000/svg">
<path d="M10.0446 102.975H4.3219V109H1.8512V94.7812H10.8844V96.7734H4.3219V101.002H10.0446V102.975ZM15.1422 109H12.7692V98.4336H15.1422V109ZM12.6227 95.6895C12.6227 95.3249 12.7366 95.0221 12.9645 94.7812C13.1989 94.5404 13.5309 94.4199 13.9606 94.4199C14.3903 94.4199 14.7223 94.5404 14.9567 94.7812C15.191 95.0221 15.3082 95.3249 15.3082 95.6895C15.3082 96.0475 15.191 96.347 14.9567 96.5879C14.7223 96.8223 14.3903 96.9395 13.9606 96.9395C13.5309 96.9395 13.1989 96.8223 12.9645 96.5879C12.7366 96.347 12.6227 96.0475 12.6227 95.6895ZM19.9371 98.4336L20.0055 99.6543C20.7867 98.7103 21.8121 98.2383 23.0817 98.2383C25.2822 98.2383 26.402 99.498 26.441 102.018V109H24.068V102.154C24.068 101.484 23.9215 100.989 23.6285 100.67C23.3421 100.344 22.8701 100.182 22.2125 100.182C21.2555 100.182 20.5426 100.615 20.0739 101.48V109H17.7008V98.4336H19.9371ZM28.4235 103.639C28.4235 102.011 28.8011 100.706 29.5563 99.7227C30.3115 98.7331 31.3239 98.2383 32.5934 98.2383C33.7132 98.2383 34.6181 98.6289 35.3082 99.4102V94H37.6813V109H35.5328L35.4156 107.906C34.706 108.766 33.7587 109.195 32.5739 109.195C31.3369 109.195 30.3343 108.697 29.566 107.701C28.8043 106.705 28.4235 105.351 28.4235 103.639ZM30.7965 103.844C30.7965 104.918 31.0016 105.758 31.4117 106.363C31.8284 106.962 32.4176 107.262 33.1793 107.262C34.1494 107.262 34.859 106.829 35.3082 105.963V101.451C34.872 100.605 34.1689 100.182 33.1989 100.182C32.4306 100.182 31.8382 100.488 31.4215 101.1C31.0048 101.705 30.7965 102.62 30.7965 103.844ZM54.4098 103.824C54.4098 105.465 54.042 106.77 53.3063 107.74C52.5771 108.71 51.5712 109.195 50.2887 109.195C49.0517 109.195 48.0882 108.749 47.3981 107.857L47.2809 109H45.1324V94H47.5055V99.4492C48.1891 98.6419 49.1103 98.2383 50.2692 98.2383C51.5582 98.2383 52.5706 98.7168 53.3063 99.6738C54.042 100.631 54.4098 101.969 54.4098 103.688V103.824ZM52.0367 103.619C52.0367 102.473 51.8349 101.614 51.4313 101.041C51.0276 100.468 50.4417 100.182 49.6735 100.182C48.6448 100.182 47.9222 100.631 47.5055 101.529V105.885C47.9287 106.803 48.6578 107.262 49.693 107.262C50.4352 107.262 51.0081 106.985 51.4117 106.432C51.8154 105.878 52.0237 105.042 52.0367 103.922V103.619ZM61.0602 109.195C59.5563 109.195 58.3356 108.723 57.3981 107.779C56.4671 106.829 56.0016 105.566 56.0016 103.99V103.697C56.0016 102.643 56.2034 101.702 56.6071 100.875C57.0172 100.042 57.5901 99.3939 58.3258 98.9316C59.0615 98.4694 59.8818 98.2383 60.7867 98.2383C62.2255 98.2383 63.3356 98.6973 64.1168 99.6152C64.9046 100.533 65.2985 101.832 65.2985 103.512V104.469H58.3942C58.4658 105.341 58.7555 106.031 59.2633 106.539C59.7776 107.047 60.4222 107.301 61.1969 107.301C62.2841 107.301 63.1696 106.861 63.8531 105.982L65.1324 107.203C64.7093 107.835 64.1429 108.326 63.4332 108.678C62.7301 109.023 61.9391 109.195 61.0602 109.195ZM60.777 100.143C60.1259 100.143 59.5986 100.37 59.1949 100.826C58.7978 101.282 58.5439 101.917 58.4332 102.73H62.9547V102.555C62.9026 101.76 62.691 101.161 62.3199 100.758C61.9489 100.348 61.4345 100.143 60.777 100.143ZM73.0719 106.129C73.0719 105.706 72.8961 105.383 72.5446 105.162C72.1995 104.941 71.6233 104.745 70.816 104.576C70.0087 104.407 69.3349 104.192 68.7946 103.932C67.6097 103.359 67.0172 102.529 67.0172 101.441C67.0172 100.53 67.4013 99.7682 68.1696 99.1562C68.9378 98.5443 69.9143 98.2383 71.0992 98.2383C72.3623 98.2383 73.3811 98.5508 74.1559 99.1758C74.9371 99.8008 75.3278 100.611 75.3278 101.607H72.9547C72.9547 101.152 72.7854 100.774 72.4469 100.475C72.1084 100.169 71.6591 100.016 71.0992 100.016C70.5784 100.016 70.152 100.136 69.8199 100.377C69.4944 100.618 69.3317 100.94 69.3317 101.344C69.3317 101.708 69.4847 101.992 69.7906 102.193C70.0966 102.395 70.7151 102.6 71.6461 102.809C72.5771 103.01 73.3063 103.255 73.8336 103.541C74.3675 103.821 74.7614 104.16 75.0153 104.557C75.2757 104.954 75.4059 105.436 75.4059 106.002C75.4059 106.952 75.012 107.724 74.2242 108.316C73.4365 108.902 72.4046 109.195 71.1285 109.195C70.2627 109.195 69.4912 109.039 68.8141 108.727C68.137 108.414 67.6097 107.984 67.2321 107.438C66.8545 106.891 66.6656 106.301 66.6656 105.67H68.9703C69.0029 106.23 69.2145 106.663 69.6051 106.969C69.9957 107.268 70.5133 107.418 71.1578 107.418C71.7828 107.418 72.2581 107.301 72.5836 107.066C72.9091 106.826 73.0719 106.513 73.0719 106.129ZM80.4547 95.8652V98.4336H82.3199V100.191H80.4547V106.09C80.4547 106.493 80.5328 106.786 80.6891 106.969C80.8518 107.145 81.1383 107.232 81.5485 107.232C81.8219 107.232 82.0986 107.2 82.3785 107.135V108.971C81.8382 109.12 81.3173 109.195 80.816 109.195C78.9931 109.195 78.0817 108.189 78.0817 106.178V100.191H76.3434V98.4336H78.0817V95.8652H80.4547ZM88.6774 103.639C88.6774 102.011 89.055 100.706 89.8102 99.7227C90.5654 98.7331 91.5778 98.2383 92.8473 98.2383C93.9671 98.2383 94.872 98.6289 95.5621 99.4102V94H97.9352V109H95.7867L95.6696 107.906C94.9599 108.766 94.0127 109.195 92.8278 109.195C91.5908 109.195 90.5882 108.697 89.8199 107.701C89.0582 106.705 88.6774 105.351 88.6774 103.639ZM91.0504 103.844C91.0504 104.918 91.2555 105.758 91.6656 106.363C92.0823 106.962 92.6715 107.262 93.4332 107.262C94.4033 107.262 95.1129 106.829 95.5621 105.963V101.451C95.1259 100.605 94.4228 100.182 93.4528 100.182C92.6845 100.182 92.0921 100.488 91.6754 101.1C91.2587 101.705 91.0504 102.62 91.0504 103.844ZM99.9664 103.619C99.9664 102.584 100.172 101.653 100.582 100.826C100.992 99.9928 101.568 99.3548 102.31 98.9121C103.052 98.4629 103.905 98.2383 104.869 98.2383C106.295 98.2383 107.45 98.6973 108.336 99.6152C109.227 100.533 109.709 101.751 109.781 103.268L109.791 103.824C109.791 104.866 109.589 105.797 109.185 106.617C108.788 107.438 108.215 108.072 107.466 108.521C106.724 108.971 105.865 109.195 104.888 109.195C103.397 109.195 102.203 108.701 101.304 107.711C100.412 106.715 99.9664 105.39 99.9664 103.736V103.619ZM102.339 103.824C102.339 104.911 102.564 105.764 103.013 106.383C103.463 106.995 104.088 107.301 104.888 107.301C105.689 107.301 106.311 106.988 106.754 106.363C107.203 105.738 107.427 104.824 107.427 103.619C107.427 102.551 107.196 101.705 106.734 101.08C106.278 100.455 105.657 100.143 104.869 100.143C104.094 100.143 103.479 100.452 103.023 101.07C102.567 101.682 102.339 102.6 102.339 103.824ZM116.138 107.301C116.731 107.301 117.222 107.128 117.613 106.783C118.004 106.438 118.212 106.012 118.238 105.504H120.474C120.448 106.161 120.243 106.777 119.859 107.35C119.475 107.916 118.954 108.365 118.297 108.697C117.639 109.029 116.929 109.195 116.168 109.195C114.69 109.195 113.518 108.717 112.652 107.76C111.786 106.803 111.353 105.481 111.353 103.795V103.551C111.353 101.943 111.783 100.657 112.642 99.6934C113.502 98.7233 114.673 98.2383 116.158 98.2383C117.414 98.2383 118.436 98.6061 119.224 99.3418C120.019 100.071 120.435 101.031 120.474 102.223H118.238C118.212 101.617 118.004 101.119 117.613 100.729C117.229 100.338 116.737 100.143 116.138 100.143C115.37 100.143 114.778 100.423 114.361 100.982C113.944 101.536 113.733 102.379 113.726 103.512V103.893C113.726 105.038 113.931 105.895 114.341 106.461C114.758 107.021 115.357 107.301 116.138 107.301ZM125.24 95.8652V98.4336H127.105V100.191H125.24V106.09C125.24 106.493 125.318 106.786 125.474 106.969C125.637 107.145 125.923 107.232 126.334 107.232C126.607 107.232 126.884 107.2 127.164 107.135V108.971C126.623 109.12 126.102 109.195 125.601 109.195C123.778 109.195 122.867 108.189 122.867 106.178V100.191H121.129V98.4336H122.867V95.8652H125.24ZM128.189 103.619C128.189 102.584 128.394 101.653 128.804 100.826C129.214 99.9928 129.791 99.3548 130.533 98.9121C131.275 98.4629 132.128 98.2383 133.091 98.2383C134.517 98.2383 135.673 98.6973 136.558 99.6152C137.45 100.533 137.932 101.751 138.004 103.268L138.013 103.824C138.013 104.866 137.811 105.797 137.408 106.617C137.011 107.438 136.438 108.072 135.689 108.521C134.947 108.971 134.088 109.195 133.111 109.195C131.62 109.195 130.425 108.701 129.527 107.711C128.635 106.715 128.189 105.39 128.189 103.736V103.619ZM130.562 103.824C130.562 104.911 130.787 105.764 131.236 106.383C131.685 106.995 132.31 107.301 133.111 107.301C133.912 107.301 134.533 106.988 134.976 106.363C135.425 105.738 135.65 104.824 135.65 103.619C135.65 102.551 135.419 101.705 134.957 101.08C134.501 100.455 133.879 100.143 133.091 100.143C132.317 100.143 131.701 100.452 131.246 101.07C130.79 101.682 130.562 102.6 130.562 103.824ZM145.552 100.602C145.24 100.549 144.918 100.523 144.586 100.523C143.498 100.523 142.766 100.94 142.388 101.773V109H140.015V98.4336H142.281L142.339 99.6152C142.912 98.6973 143.707 98.2383 144.722 98.2383C145.061 98.2383 145.341 98.2839 145.562 98.375L145.552 100.602ZM147.701 99L146.49 98.248C147.076 97.3952 147.379 96.4935 147.398 95.543V94H149.478V95.3477C149.478 96.0182 149.306 96.6953 148.961 97.3789C148.622 98.056 148.202 98.5964 147.701 99ZM155.201 106.129C155.201 105.706 155.025 105.383 154.673 105.162C154.328 104.941 153.752 104.745 152.945 104.576C152.138 104.407 151.464 104.192 150.923 103.932C149.739 103.359 149.146 102.529 149.146 101.441C149.146 100.53 149.53 99.7682 150.298 99.1562C151.067 98.5443 152.043 98.2383 153.228 98.2383C154.491 98.2383 155.51 98.5508 156.285 99.1758C157.066 99.8008 157.457 100.611 157.457 101.607H155.084C155.084 101.152 154.914 100.774 154.576 100.475C154.237 100.169 153.788 100.016 153.228 100.016C152.707 100.016 152.281 100.136 151.949 100.377C151.623 100.618 151.461 100.94 151.461 101.344C151.461 101.708 151.614 101.992 151.92 102.193C152.226 102.395 152.844 102.6 153.775 102.809C154.706 103.01 155.435 103.255 155.963 103.541C156.496 103.821 156.89 104.16 157.144 104.557C157.405 104.954 157.535 105.436 157.535 106.002C157.535 106.952 157.141 107.724 156.353 108.316C155.565 108.902 154.533 109.195 153.257 109.195C152.392 109.195 151.62 109.039 150.943 108.727C150.266 108.414 149.739 107.984 149.361 107.438C148.983 106.891 148.795 106.301 148.795 105.67H151.099C151.132 106.23 151.343 106.663 151.734 106.969C152.125 107.268 152.642 107.418 153.287 107.418C153.912 107.418 154.387 107.301 154.713 107.066C155.038 106.826 155.201 106.513 155.201 106.129Z" fill="#3D3D3F"/>
<g style="mix-blend-mode:multiply" filter="url(#filter0_d_1_150)">
<path fill-rule="evenodd" clip-rule="evenodd" d="M88.3123 81C110.576 81 128.625 63.0914 128.625 41C128.625 18.9086 110.576 1 88.3123 1C66.0485 1 48.0001 18.9086 48.0001 41C48.0001 63.0914 66.0485 81 88.3123 81Z" fill="url(#paint0_linear_1_150)" fill-opacity="0.1"/>
</g>
<defs>
<filter id="filter0_d_1_150" x="26.0001" y="-17" width="124.624" height="124" filterUnits="userSpaceOnUse" color-interpolation-filters="sRGB">
<feFlood flood-opacity="0" result="BackgroundImageFix"/>
<feColorMatrix in="SourceAlpha" type="matrix" values="0 0 0 0 0 0 0 0 0 0 0 0 0 0 0 0 0 0 127 0" result="hardAlpha"/>
<feOffset dy="4"/>
<feGaussianBlur stdDeviation="11"/>
<feColorMatrix type="matrix" values="0 0 0 0 0 0 0 0 0 0 0 0 0 0 0 0 0 0 0.05 0"/>
<feBlend mode="normal" in2="BackgroundImageFix" result="effect1_dropShadow_1_150"/>
<feBlend mode="normal" in="SourceGraphic" in2="effect1_dropShadow_1_150" result="shape"/>
</filter>
<linearGradient id="paint0_linear_1_150" x1="88.3123" y1="1" x2="88.3123" y2="81" gradientUnits="userSpaceOnUse">
<stop stop-color="#009EFF"/>
<stop offset="1" stop-color="#38AFFF"/>
</linearGradient>
</defs>
</svg>
